<svg id="Icons" xmlns="http://www.w3.org/2000/svg" viewBox="0 0 512 512"><defs><style>.cls-1{fill:#efca2b;}.cls-2{fill:#fbdb58;}.cls-3{fill:#c2aacf;}.cls-4{fill:#decee5;}.cls-5{fill:#f4e6f4;}.cls-6{fill:#6052a3;}.cls-7{fill:#7063ce;}.cls-8{fill:#7d73ff;}.cls-9{fill:#fff;}.cls-10{fill:#ebd9ea;}.cls-11{fill:#f39e22;}.cls-12{fill:#f9c744;}.cls-13{fill:#c44a1a;}.cls-14{fill:#e52e44;}.cls-15{fill:#fa4654;}.cls-16{fill:#fb626e;}.cls-17{fill:#0989d8;}.cls-18{fill:#29a3fb;}.cls-19{fill:#7ed0fc;}.cls-20{fill:#dd5e26;}.cls-21{fill:#ea792e;}.cls-22{fill:#088754;}.cls-23{fill:#14a36d;}.cls-24{fill:#15be79;}</style></defs><title>019-beer-export</title><circle class="cls-1" cx="256" cy="256" r="255.98"/><path class="cls-2" d="M32.52,380.86A255.58,255.58,0,0,1,22.46,151.18C80.36,22.2,231.84-35.43,360.82,22.46a254.75,254.75,0,0,1,110,94.3,77.22,77.22,0,0,0-9.06,13c-13.6,24.51-16.17,57.07-39.29,72.93-15.85,10.88-37.05,10.16-55.64,5.23s-36.12-13.59-54.95-17.5a112.54,112.54,0,0,0-132.7,85.8c-4.6,20.79-4.86,45.63-22.07,58.18-23.4,17-60.14-2.58-84,13.84-7.69,5.31-12.7,13.6-19.4,20.08A54.49,54.49,0,0,1,32.52,380.86Z"/><rect class="cls-3" x="147.3" y="222.32" width="92.34" height="10.93" rx="3.55"/><rect class="cls-4" x="159.16" y="222.32" width="80.49" height="10.93" rx="3.55"/><ellipse class="cls-5" cx="195.95" cy="226.73" rx="11.71" ry="3.53"/><ellipse class="cls-5" cx="217.93" cy="226.73" rx="8.36" ry="2.29"/><path class="cls-6" d="M247.52,90.33V186.5a49.7,49.7,0,0,1-5.13,22l-6.81,13.81H151.36l-6.8-13.81a49.71,49.71,0,0,1-5.14-22V90.33a49.68,49.68,0,0,1,5.14-22l6.8-13.81h84.22l6.81,13.81A49.67,49.67,0,0,1,247.52,90.33Z"/><path class="cls-7" d="M247.52,90.33V186.5a49.7,49.7,0,0,1-5.13,22l-6.81,13.81H164l-6.81-13.81a49.84,49.84,0,0,1-5.13-22V90.33a49.8,49.8,0,0,1,5.13-22L164,54.51h71.55l6.81,13.81A49.67,49.67,0,0,1,247.52,90.33Z"/><ellipse class="cls-8" cx="213.53" cy="71.63" rx="12.17" ry="19.6" transform="translate(84.98 256.56) rotate(-73.74)"/><ellipse class="cls-8" cx="236.03" cy="95.6" rx="6.38" ry="11.62" transform="translate(-17.1 67.72) rotate(-15.76)"/><path class="cls-9" d="M247.52,120.2H234.85c-6.63-17.77-22.65-30.31-41.38-30.31s-34.75,12.54-41.38,30.31H139.42v36.43h12.67c6.63,17.77,22.66,30.3,41.38,30.3s34.75-12.53,41.38-30.3h12.67Z"/><rect class="cls-10" x="139.42" y="120.2" width="12.67" height="36.43"/><ellipse class="cls-11" cx="193.47" cy="138.41" rx="32.37" ry="35.18"/><ellipse class="cls-12" cx="193.47" cy="138.41" rx="24.16" ry="26.26"/><rect class="cls-13" x="179.9" y="123.27" width="26.85" height="7.12" rx="3.56"/><rect class="cls-13" x="171.09" y="136.1" width="44.47" height="7.12" rx="3.56"/><rect class="cls-3" x="147.3" y="43.58" width="92.34" height="10.93" rx="3.55"/><rect class="cls-4" x="159.16" y="43.58" width="80.49" height="10.93" rx="3.55"/><ellipse class="cls-5" cx="195.95" cy="48" rx="11.71" ry="3.53"/><ellipse class="cls-5" cx="217.93" cy="48" rx="8.36" ry="2.29"/><rect class="cls-3" x="272.36" y="222.32" width="92.34" height="10.93" rx="3.55"/><rect class="cls-4" x="284.21" y="222.32" width="80.49" height="10.93" rx="3.55"/><ellipse class="cls-5" cx="321.01" cy="226.73" rx="11.71" ry="3.53"/><ellipse class="cls-5" cx="342.99" cy="226.73" rx="8.36" ry="2.29"/><path class="cls-14" d="M372.58,90.33V186.5a49.71,49.71,0,0,1-5.14,22l-6.8,13.81H276.42l-6.81-13.81a49.7,49.7,0,0,1-5.13-22V90.33a49.67,49.67,0,0,1,5.13-22l6.81-13.81h84.22l6.8,13.81A49.68,49.68,0,0,1,372.58,90.33Z"/><path class="cls-15" d="M372.58,90.33V186.5a49.71,49.71,0,0,1-5.14,22l-6.8,13.81H289.09l-6.81-13.81a49.7,49.7,0,0,1-5.13-22V90.33a49.67,49.67,0,0,1,5.13-22l6.81-13.81h71.55l6.8,13.81A49.68,49.68,0,0,1,372.58,90.33Z"/><ellipse class="cls-16" cx="338.58" cy="71.63" rx="12.17" ry="19.6" transform="translate(175.03 376.61) rotate(-73.74)"/><ellipse class="cls-16" cx="361.09" cy="95.6" rx="6.38" ry="11.62" transform="translate(-12.39 101.69) rotate(-15.76)"/><path class="cls-9" d="M372.58,120.2H359.91c-6.63-17.77-22.66-30.31-41.38-30.31s-34.75,12.54-41.38,30.31H264.48v36.43h12.67c6.63,17.77,22.65,30.3,41.38,30.3s34.75-12.53,41.38-30.3h12.67Z"/><rect class="cls-10" x="264.48" y="120.2" width="12.67" height="36.43"/><ellipse class="cls-11" cx="318.53" cy="138.41" rx="32.37" ry="35.18"/><ellipse class="cls-12" cx="318.53" cy="138.41" rx="24.16" ry="26.26"/><rect class="cls-13" x="304.95" y="123.27" width="26.85" height="7.12" rx="3.56"/><rect class="cls-13" x="296.14" y="136.1" width="44.47" height="7.12" rx="3.56"/><rect class="cls-3" x="272.36" y="43.58" width="92.34" height="10.93" rx="3.55"/><rect class="cls-4" x="284.21" y="43.58" width="80.49" height="10.93" rx="3.55"/><ellipse class="cls-5" cx="321.01" cy="48" rx="11.71" ry="3.53"/><ellipse class="cls-5" cx="342.99" cy="48" rx="8.36" ry="2.29"/><rect class="cls-3" x="209.83" y="411.98" width="92.34" height="10.93" rx="3.55"/><rect class="cls-4" x="221.68" y="411.98" width="80.49" height="10.93" rx="3.55"/><ellipse class="cls-5" cx="258.48" cy="416.39" rx="11.71" ry="3.53"/><ellipse class="cls-5" cx="280.46" cy="416.39" rx="8.36" ry="2.29"/><path class="cls-17" d="M310.05,280v96.18a49.66,49.66,0,0,1-5.13,22L298.11,412H213.89l-6.81-13.81a49.66,49.66,0,0,1-5.13-22V280a49.73,49.73,0,0,1,5.13-22l6.81-13.8h84.22l6.81,13.8A49.73,49.73,0,0,1,310.05,280Z"/><path class="cls-18" d="M310.05,280v96.18a49.66,49.66,0,0,1-5.13,22L298.11,412H226.56l-6.81-13.81a49.79,49.79,0,0,1-5.13-22V280a49.87,49.87,0,0,1,5.13-22l6.81-13.8h71.55l6.81,13.8A49.73,49.73,0,0,1,310.05,280Z"/><ellipse class="cls-19" cx="276.05" cy="261.29" rx="12.17" ry="19.6" transform="translate(-52.07 453.15) rotate(-73.74)"/><ellipse class="cls-19" cx="298.56" cy="285.27" rx="6.38" ry="11.62" transform="translate(-66.27 91.84) rotate(-15.76)"/><path class="cls-9" d="M310.05,309.86H297.38c-6.63-17.77-22.65-30.3-41.38-30.3s-34.75,12.53-41.38,30.3H202v36.43h12.67c6.63,17.77,22.65,30.31,41.38,30.31s34.75-12.54,41.38-30.31h12.67Z"/><rect class="cls-10" x="201.95" y="309.86" width="12.67" height="36.43"/><ellipse class="cls-11" cx="256" cy="328.08" rx="32.37" ry="35.18"/><ellipse class="cls-12" cx="256" cy="328.08" rx="24.16" ry="26.26"/><rect class="cls-13" x="242.42" y="312.93" width="26.85" height="7.12" rx="3.56"/><rect class="cls-13" x="233.61" y="325.77" width="44.47" height="7.12" rx="3.56"/><rect class="cls-3" x="209.83" y="233.25" width="92.34" height="10.93" rx="3.55"/><rect class="cls-4" x="221.68" y="233.25" width="80.49" height="10.93" rx="3.55"/><ellipse class="cls-5" cx="258.48" cy="237.66" rx="11.71" ry="3.53"/><ellipse class="cls-5" cx="280.46" cy="237.66" rx="8.36" ry="2.29"/><rect class="cls-3" x="334.88" y="411.98" width="92.34" height="10.93" rx="3.55"/><rect class="cls-4" x="346.74" y="411.98" width="80.49" height="10.93" rx="3.55"/><ellipse class="cls-5" cx="383.53" cy="416.39" rx="11.71" ry="3.53"/><ellipse class="cls-5" cx="405.51" cy="416.39" rx="8.36" ry="2.29"/><path class="cls-20" d="M435.11,280v96.18a49.67,49.67,0,0,1-5.14,22L423.17,412H338.94l-6.8-13.81a49.67,49.67,0,0,1-5.14-22V280a49.74,49.74,0,0,1,5.14-22l6.8-13.8h84.23L430,258A49.74,49.74,0,0,1,435.11,280Z"/><path class="cls-21" d="M435.11,280v96.18a49.67,49.67,0,0,1-5.14,22L423.17,412H351.61l-6.81-13.81a49.78,49.78,0,0,1-5.12-22V280a49.86,49.86,0,0,1,5.12-22l6.81-13.8h71.56L430,258A49.74,49.74,0,0,1,435.11,280Z"/><ellipse class="cls-11" cx="401.11" cy="261.29" rx="12.17" ry="19.6" transform="translate(37.97 573.2) rotate(-73.74)"/><ellipse class="cls-11" cx="423.62" cy="285.27" rx="6.38" ry="11.62" transform="translate(-61.57 125.82) rotate(-15.76)"/><path class="cls-9" d="M435.11,309.86H422.43c-6.62-17.77-22.65-30.3-41.38-30.3s-34.75,12.53-41.37,30.3H327v36.43h12.68c6.62,17.77,22.65,30.31,41.37,30.31s34.76-12.54,41.38-30.31h12.68Z"/><rect class="cls-10" x="327" y="309.86" width="12.67" height="36.43"/><ellipse class="cls-11" cx="381.05" cy="328.08" rx="32.37" ry="35.18"/><ellipse class="cls-12" cx="381.05" cy="328.08" rx="24.16" ry="26.26"/><rect class="cls-13" x="367.48" y="312.93" width="26.85" height="7.12" rx="3.56"/><rect class="cls-13" x="358.67" y="325.77" width="44.47" height="7.12" rx="3.56"/><rect class="cls-3" x="334.88" y="233.25" width="92.34" height="10.93" rx="3.55"/><rect class="cls-4" x="346.74" y="233.25" width="80.49" height="10.93" rx="3.55"/><ellipse class="cls-5" cx="383.53" cy="237.66" rx="11.71" ry="3.53"/><ellipse class="cls-5" cx="405.51" cy="237.66" rx="8.36" ry="2.29"/><rect class="cls-3" x="84.77" y="411.98" width="92.34" height="10.93" rx="3.55"/><rect class="cls-4" x="96.63" y="411.98" width="80.49" height="10.93" rx="3.55"/><ellipse class="cls-5" cx="133.43" cy="416.39" rx="11.71" ry="3.53"/><ellipse class="cls-5" cx="155.4" cy="416.39" rx="8.36" ry="2.29"/><path class="cls-22" d="M185,280v96.18a49.67,49.67,0,0,1-5.14,22L173.06,412H88.83L82,398.17a49.67,49.67,0,0,1-5.14-22V280A49.74,49.74,0,0,1,82,258l6.8-13.8h84.23l6.8,13.8A49.74,49.74,0,0,1,185,280Z"/><path class="cls-23" d="M185,280v96.18a49.67,49.67,0,0,1-5.14,22L173.06,412H101.51l-6.82-13.81a49.78,49.78,0,0,1-5.12-22V280a49.86,49.86,0,0,1,5.12-22l6.82-13.8h71.55l6.8,13.8A49.74,49.74,0,0,1,185,280Z"/><ellipse class="cls-24" cx="151" cy="261.29" rx="12.17" ry="19.6" transform="translate(-142.12 333.1) rotate(-73.74)"/><ellipse class="cls-24" cx="173.51" cy="285.27" rx="6.38" ry="11.62" transform="translate(-70.97 57.87) rotate(-15.76)"/><path class="cls-9" d="M185,309.86H172.32c-6.62-17.77-22.65-30.3-41.37-30.3s-34.76,12.53-41.38,30.3H76.89v36.43H89.57c6.62,17.77,22.65,30.31,41.38,30.31s34.75-12.54,41.37-30.31H185Z"/><rect class="cls-10" x="76.89" y="309.86" width="12.67" height="36.43"/><ellipse class="cls-11" cx="130.95" cy="328.08" rx="32.37" ry="35.18"/><ellipse class="cls-12" cx="130.95" cy="328.08" rx="24.16" ry="26.26"/><rect class="cls-13" x="117.37" y="312.93" width="26.85" height="7.12" rx="3.56"/><rect class="cls-13" x="108.56" y="325.77" width="44.47" height="7.12" rx="3.56"/><rect class="cls-3" x="84.77" y="233.25" width="92.34" height="10.93" rx="3.55"/><rect class="cls-4" x="96.63" y="233.25" width="80.49" height="10.93" rx="3.55"/><ellipse class="cls-5" cx="133.43" cy="237.66" rx="11.71" ry="3.53"/><ellipse class="cls-5" cx="155.4" cy="237.66" rx="8.36" ry="2.29"/></svg>