<svg id="Icons" xmlns="http://www.w3.org/2000/svg" viewBox="0 0 512 512"><defs><style>.cls-1{fill:#fbdb58;}.cls-2{fill:#efb732;}.cls-3{fill:#6b250c;}.cls-4{fill:#7a2b13;}.cls-5{fill:#8c4735;}.cls-6{fill:#a05740;}.cls-7{fill:#b76049;}.cls-8{fill:#c2aacf;}.cls-9{fill:#decee5;}.cls-10{fill:#f4e6f4;}.cls-11{fill:#fbd9a3;}.cls-12{fill:#faefdc;}</style></defs><title>019-beer-export</title><circle class="cls-1" cx="256" cy="256" r="255.98"/><path class="cls-2" d="M512,255.76A255.63,255.63,0,0,0,408.56,50.44C295-33.81,134.69-10.08,50.44,103.44a254.76,254.76,0,0,0-49.93,136,76.89,76.89,0,0,1,14.24,6.88c23.84,14.74,42,41.9,69.91,44.44,19.15,1.75,37.29-9.24,51.1-22.62s24.87-29.51,39.4-42.12a112.53,112.53,0,0,1,157.7,10c14.17,15.89,26.53,37.44,47.68,40,28.75,3.44,51.22-31.63,80-28.95,9.3.87,17.72,5.66,26.73,8A54.5,54.5,0,0,0,512,255.76Z"/><path class="cls-3" d="M358.68,344.74v82.13a8.62,8.62,0,0,1-.13,1.53,9.3,9.3,0,0,1-9.18,7.78H332.06a9.31,9.31,0,0,1-9.31-9.31v-14.5A26.78,26.78,0,0,0,296,385.58H222a26.78,26.78,0,0,0-26.78,26.79v14.5a9.31,9.31,0,0,1-9.31,9.31H168.63a9.3,9.3,0,0,1-9.18-7.78,8.62,8.62,0,0,1-.13-1.53V344.74Z"/><path class="cls-4" d="M358.68,344.74v82.13a8.62,8.62,0,0,1-.13,1.53H343.18c-5.92,0-10.73-4.17-10.73-9.31v-14.5c0-14.79-13.81-26.79-30.86-26.79H216.41c-17,0-30.86,12-30.86,26.79v14.5c0,5.14-4.81,9.31-10.73,9.31H159.45a8.62,8.62,0,0,1-.13-1.53V344.74Z"/><path class="cls-3" d="M358.68,344.74v18.1c-25,4.82-57.79,8.55-99.68,8.55s-74.72-3.73-99.68-8.55v-18.1Z"/><path class="cls-5" d="M423.85,139.92V312.08a19.93,19.93,0,0,1-12.06,18.33c-20.43,8.76-68.11,24-152.79,24s-132.36-15.22-152.79-24a19.93,19.93,0,0,1-12.06-18.33V139.91a19.94,19.94,0,0,1,12.06-18.33c20.41-8.75,68-24,152.53-24,84.87,0,132.6,15.22,153,24A19.94,19.94,0,0,1,423.85,139.92Z"/><path class="cls-6" d="M423.85,139.92V284.25a19.93,19.93,0,0,1-12.06,18.33c-20.43,8.75-68.11,24-152.79,24s-132.36-15.22-152.79-24a19.93,19.93,0,0,1-12.06-18.33V139.91a19.94,19.94,0,0,1,12.06-18.33c20.41-8.75,68-24,152.53-24,84.87,0,132.6,15.22,153,24A19.94,19.94,0,0,1,423.85,139.92Z"/><path class="cls-5" d="M423.85,150.72V160.8a4.94,4.94,0,0,1-.93-.08c-.23-.05-12-2.19-38.36-4.33s-67.28-4.26-125.82-4.26c-116.56,0-163.2,8.5-163.66,8.59a4.88,4.88,0,0,1-.93.09V150.72c7.16-1.23,54.41-8.59,164.59-8.59C369.39,142.13,416.69,149.49,423.85,150.72Z"/><path class="cls-4" d="M423.85,159.59v10.08a4.94,4.94,0,0,1-.93-.08c-.23-.05-12-2.19-38.36-4.33S317.28,161,258.74,161c-116.56,0-163.2,8.5-163.66,8.59a4.88,4.88,0,0,1-.93.09V159.59c7.16-1.23,54.41-8.59,164.59-8.59C369.39,151,416.69,158.36,423.85,159.59Z"/><path class="cls-5" d="M423.85,273.59v10.08c-7.16,1.23-54.41,8.59-164.59,8.59-110.65,0-157.95-7.36-165.11-8.59V273.59a4.87,4.87,0,0,1,.93.08c.23,0,12,2.19,38.36,4.33s67.28,4.26,125.82,4.26c116.56,0,163.2-8.5,163.66-8.59A4.87,4.87,0,0,1,423.85,273.59Z"/><path class="cls-4" d="M423.85,282.46v10.08c-7.16,1.23-54.41,8.59-164.59,8.59-110.65,0-157.95-7.36-165.11-8.59V282.46a4.87,4.87,0,0,1,.93.08c.23,0,12,2.19,38.36,4.33s67.28,4.26,125.82,4.26c116.56,0,163.2-8.5,163.66-8.59A4.87,4.87,0,0,1,423.85,282.46Z"/><rect class="cls-5" x="94.15" y="212.13" width="329.7" height="10"/><rect class="cls-4" x="94.15" y="221" width="329.7" height="10"/><ellipse class="cls-7" cx="269.05" cy="180.3" rx="14.11" ry="30.85" transform="translate(78.85 442.45) rotate(-87.86)"/><ellipse class="cls-7" cx="332.03" cy="182.65" rx="9.42" ry="21.11" transform="translate(137.13 507.65) rotate(-87.86)"/><ellipse class="cls-7" cx="248.09" cy="115.44" rx="14.11" ry="30.85" transform="translate(123.48 359.05) rotate(-87.86)"/><ellipse class="cls-7" cx="311.07" cy="117.79" rx="9.42" ry="21.11" transform="translate(181.77 424.25) rotate(-87.86)"/><path class="cls-8" d="M174.49,99.42V352.58a8,8,0,0,1-10,7.7l-14.42-3.8a8,8,0,0,1-5.93-7.7V103.22a8,8,0,0,1,5.93-7.7l14.42-3.8A8,8,0,0,1,174.49,99.42Z"/><path class="cls-9" d="M174.49,99.42V318.58a8,8,0,0,1-10,7.7l-14.42-3.8a8,8,0,0,1-5.93-7.7V103.22a8,8,0,0,1,5.93-7.7l14.42-3.8A8,8,0,0,1,174.49,99.42Z"/><ellipse class="cls-10" cx="156.49" cy="154.54" rx="8.38" ry="23.58"/><ellipse class="cls-10" cx="156.49" cy="197.49" rx="5.52" ry="11.56"/><path class="cls-8" d="M343.51,99.42V352.58a8,8,0,0,0,10,7.7l14.42-3.8a8,8,0,0,0,5.93-7.7V103.22a8,8,0,0,0-5.93-7.7l-14.42-3.8A8,8,0,0,0,343.51,99.42Z"/><path class="cls-9" d="M343.51,99.42V318.58a8,8,0,0,0,10,7.7l14.42-3.8a8,8,0,0,0,5.93-7.7V103.22a8,8,0,0,0-5.93-7.7l-14.42-3.8A8,8,0,0,0,343.51,99.42Z"/><ellipse class="cls-10" cx="361.51" cy="154.54" rx="8.38" ry="23.58"/><ellipse class="cls-10" cx="361.51" cy="197.49" rx="5.52" ry="11.56"/><path class="cls-11" d="M94.15,238.08v31.16H67.92A7.23,7.23,0,0,1,60.69,262V245.3a7.23,7.23,0,0,1,7.23-7.22Z"/><path class="cls-12" d="M94.15,238.08V258.7H67.92a7.23,7.23,0,0,1-7.23-7.22V245.3a7.23,7.23,0,0,1,7.23-7.22Z"/></svg>