<svg id="Icons" xmlns="http://www.w3.org/2000/svg" viewBox="0 0 512 512"><defs><style>.cls-1{fill:#b82065;}.cls-2{fill:#d7156f;}.cls-3{fill:#efb732;}.cls-4{fill:#fbdb58;}.cls-5{fill:#f9eaa5;}</style></defs><title>019-beer-export</title><circle class="cls-1" cx="256" cy="256" r="255.98"/><path class="cls-2" d="M0,255.76A255.63,255.63,0,0,1,103.44,50.44c113.54-84.25,273.87-60.52,358.12,53a254.76,254.76,0,0,1,49.93,136,76.89,76.89,0,0,0-14.24,6.88c-23.84,14.74-42,41.9-69.91,44.44-19.15,1.75-37.29-9.24-51.1-22.62s-24.87-29.51-39.4-42.12a112.53,112.53,0,0,0-157.7,10c-14.17,15.89-26.53,37.44-47.68,40-28.75,3.44-51.22-31.63-80-28.95-9.3.87-17.72,5.66-26.73,8A54.5,54.5,0,0,1,0,255.76Z"/><path class="cls-3" d="M262.49,184.28V452.85a6.49,6.49,0,0,1-1.9,4.59,6.72,6.72,0,0,1-1.45,1.09,6.49,6.49,0,0,1-9.63-5.68V184.28a6.49,6.49,0,0,1,13,0Z"/><path class="cls-4" d="M262.49,184.28V452.85a6.49,6.49,0,0,1-1.9,4.59,6.72,6.72,0,0,1-1.45,1.09,6.49,6.49,0,0,1-3.36-5.68V184.28a6.46,6.46,0,0,1,3.36-5.67A6.45,6.45,0,0,1,262.49,184.28Z"/><path class="cls-3" d="M241.07,347.77v19.55a1.88,1.88,0,0,1-2.95,1.55c-18.11-12.59-54,.32-55.66-64.7a1.89,1.89,0,0,1,3.22-1.38l1.66,1.66,12.92,12.92a25.16,25.16,0,0,0,17.79,7.37,23,23,0,0,1,23,23Z"/><path class="cls-4" d="M241.07,347.77v10.17c-17.41-10.51-48.8-1.58-53.73-53.49l12.92,12.92a25.16,25.16,0,0,0,17.79,7.37,23,23,0,0,1,23,23Z"/><ellipse class="cls-5" cx="211.31" cy="332.03" rx="5.96" ry="9.67" transform="translate(-166.38 442.68) rotate(-73.85)"/><ellipse class="cls-5" cx="229.07" cy="340.47" rx="4.15" ry="6.73" transform="translate(-180.41 313.61) rotate(-52.31)"/><path class="cls-3" d="M241.07,297.78v19.56a1.88,1.88,0,0,1-2.95,1.55c-18.11-12.59-54,.31-55.66-64.71a1.89,1.89,0,0,1,3.22-1.37l1.66,1.66,12.92,12.92a25.16,25.16,0,0,0,17.79,7.37,23,23,0,0,1,23,23Z"/><path class="cls-4" d="M241.07,297.78V308c-17.41-10.5-48.8-1.58-53.73-53.48l12.92,12.92a25.16,25.16,0,0,0,17.79,7.37,23,23,0,0,1,23,23Z"/><ellipse class="cls-5" cx="211.31" cy="282.05" rx="5.96" ry="9.67" transform="translate(-118.37 406.59) rotate(-73.85)"/><ellipse class="cls-5" cx="229.07" cy="290.49" rx="4.15" ry="6.73" transform="translate(-140.85 294.19) rotate(-52.31)"/><path class="cls-3" d="M241.07,247.8v19.56a1.88,1.88,0,0,1-2.95,1.55c-18.11-12.59-54,.31-55.66-64.71a1.89,1.89,0,0,1,3.22-1.38l1.66,1.67,12.92,12.92a25.16,25.16,0,0,0,17.79,7.37,23,23,0,0,1,23,23Z"/><path class="cls-4" d="M241.07,247.8V258c-17.41-10.51-48.8-1.58-53.73-53.48l12.92,12.92a25.16,25.16,0,0,0,17.79,7.37,23,23,0,0,1,23,23Z"/><ellipse class="cls-5" cx="211.31" cy="232.06" rx="5.96" ry="9.67" transform="translate(-70.36 370.51) rotate(-73.85)"/><ellipse class="cls-5" cx="229.07" cy="240.51" rx="4.15" ry="6.73" transform="translate(-101.3 274.76) rotate(-52.31)"/><path class="cls-3" d="M241.07,197.82v19.55a1.88,1.88,0,0,1-2.95,1.56c-18.11-12.6-54,.31-55.66-64.71a1.89,1.89,0,0,1,3.22-1.38l1.66,1.67,12.92,12.92a25.19,25.19,0,0,0,17.79,7.36,23,23,0,0,1,23,23Z"/><path class="cls-4" d="M241.07,197.82V208c-17.41-10.51-48.8-1.58-53.73-53.48l12.92,12.92a25.19,25.19,0,0,0,17.79,7.36,23,23,0,0,1,23,23Z"/><ellipse class="cls-5" cx="211.31" cy="182.08" rx="5.96" ry="9.67" transform="translate(-22.35 334.42) rotate(-73.85)"/><ellipse class="cls-5" cx="229.07" cy="190.53" rx="4.15" ry="6.73" transform="translate(-61.74 255.33) rotate(-52.31)"/><path class="cls-3" d="M248.35,154.34l-1.71,19.48a1.88,1.88,0,0,1-3.07,1.3c-16.94-14.13-53.86-4.4-49.8-69.32a1.88,1.88,0,0,1,3.32-1.09l1.51,1.8,11.75,14a25.13,25.13,0,0,0,17.07,8.89,23,23,0,0,1,20.93,24.94Z"/><path class="cls-4" d="M248.35,154.34l-.89,10.14c-16.43-12-48.47-5.83-48.86-58l11.75,14a25.13,25.13,0,0,0,17.07,8.89,23,23,0,0,1,20.93,24.94Z"/><ellipse class="cls-5" cx="220.07" cy="136.07" rx="5.96" ry="9.67" transform="translate(13.78 292.24) rotate(-68.85)"/><ellipse class="cls-5" cx="237.03" cy="146.03" rx="4.15" ry="6.73" transform="translate(-31.02 221.27) rotate(-47.31)"/><path class="cls-3" d="M270.93,347.77v19.55a1.88,1.88,0,0,0,2.95,1.55c18.11-12.59,54,.32,55.66-64.7a1.89,1.89,0,0,0-3.22-1.38l-1.66,1.66-12.92,12.92A25.16,25.16,0,0,1,294,324.74a23,23,0,0,0-23,23Z"/><path class="cls-4" d="M270.93,347.77v10.17c17.41-10.51,48.8-1.58,53.73-53.49l-12.92,12.92A25.16,25.16,0,0,1,294,324.74a23,23,0,0,0-23,23Z"/><ellipse class="cls-5" cx="300.69" cy="332.03" rx="9.67" ry="5.96" transform="matrix(0.96, -0.28, 0.28, 0.96, -80.47, 96.71)"/><ellipse class="cls-5" cx="282.93" cy="340.47" rx="6.73" ry="4.15" transform="translate(-149.12 243.99) rotate(-37.69)"/><path class="cls-3" d="M270.93,297.78v19.56a1.88,1.88,0,0,0,2.95,1.55c18.11-12.59,54,.31,55.66-64.71a1.89,1.89,0,0,0-3.22-1.37l-1.66,1.66-12.92,12.92A25.16,25.16,0,0,1,294,274.76a23,23,0,0,0-23,23Z"/><path class="cls-4" d="M270.93,297.78V308c17.41-10.5,48.8-1.58,53.73-53.48l-12.92,12.92A25.16,25.16,0,0,1,294,274.76a23,23,0,0,0-23,23Z"/><ellipse class="cls-5" cx="300.69" cy="282.05" rx="9.67" ry="5.96" transform="translate(-66.57 94.74) rotate(-16.15)"/><ellipse class="cls-5" cx="282.93" cy="290.49" rx="6.73" ry="4.15" transform="translate(-118.56 233.57) rotate(-37.69)"/><path class="cls-3" d="M270.93,247.8v19.56a1.88,1.88,0,0,0,2.95,1.55c18.11-12.59,54,.31,55.66-64.71a1.89,1.89,0,0,0-3.22-1.38l-1.66,1.67-12.92,12.92A25.16,25.16,0,0,1,294,224.78a23,23,0,0,0-23,23Z"/><path class="cls-4" d="M270.93,247.8V258c17.41-10.51,48.8-1.58,53.73-53.48l-12.92,12.92A25.16,25.16,0,0,1,294,224.78a23,23,0,0,0-23,23Z"/><ellipse class="cls-5" cx="300.69" cy="232.06" rx="9.67" ry="5.96" transform="matrix(0.96, -0.28, 0.28, 0.96, -52.67, 92.77)"/><ellipse class="cls-5" cx="282.93" cy="240.51" rx="6.73" ry="4.15" transform="translate(-88.01 223.14) rotate(-37.69)"/><path class="cls-3" d="M270.93,197.82v19.55a1.88,1.88,0,0,0,2.95,1.56c18.11-12.6,54,.31,55.66-64.71a1.89,1.89,0,0,0-3.22-1.38l-1.66,1.67-12.92,12.92A25.19,25.19,0,0,1,294,174.79a23,23,0,0,0-23,23Z"/><path class="cls-4" d="M270.93,197.82V208c17.41-10.51,48.8-1.58,53.73-53.48l-12.92,12.92A25.19,25.19,0,0,1,294,174.79a23,23,0,0,0-23,23Z"/><ellipse class="cls-5" cx="300.69" cy="182.08" rx="9.67" ry="5.96" transform="translate(-38.77 90.79) rotate(-16.15)"/><ellipse class="cls-5" cx="282.93" cy="190.53" rx="6.73" ry="4.15" transform="translate(-57.45 212.71) rotate(-37.69)"/><path class="cls-3" d="M263.65,154.34l1.71,19.48a1.88,1.88,0,0,0,3.07,1.3c16.94-14.13,53.86-4.4,49.8-69.32a1.88,1.88,0,0,0-3.32-1.09l-1.51,1.8-11.75,14a25.13,25.13,0,0,1-17.07,8.89,23,23,0,0,0-20.93,24.94Z"/><path class="cls-4" d="M263.65,154.34l.89,10.14c16.43-12,48.47-5.83,48.86-58l-11.75,14a25.13,25.13,0,0,1-17.07,8.89,23,23,0,0,0-20.93,24.94Z"/><ellipse class="cls-5" cx="291.93" cy="136.07" rx="9.67" ry="5.96" transform="translate(-29.43 114.47) rotate(-21.15)"/><ellipse class="cls-5" cx="274.97" cy="146.03" rx="6.73" ry="4.15" transform="translate(-26.16 225.11) rotate(-42.69)"/><path class="cls-3" d="M252.41,111.38l-5.07,18.89a1.87,1.87,0,0,1-3.24.74c-14.24-16.85-52.28-13.69-37-76.91a1.88,1.88,0,0,1,3.46-.5l1.18,2,9.14,15.83a25.1,25.1,0,0,0,15.27,11.71,23,23,0,0,1,16.28,28.2Z"/><path class="cls-4" d="M252.41,111.38l-2.64,9.83c-14.1-14.66-46.72-14.16-38.05-65.57l9.14,15.83a25.1,25.1,0,0,0,15.27,11.71,23,23,0,0,1,16.28,28.2Z"/><ellipse class="cls-5" cx="227.73" cy="88.48" rx="5.96" ry="9.67" transform="matrix(0.52, -0.86, 0.86, 0.52, 34.22, 237.62)"/><ellipse class="cls-5" cx="242.71" cy="101.24" rx="4.15" ry="6.73" transform="translate(-11.69 167.84) rotate(-37.31)"/><path class="cls-3" d="M259.59,111.38l5.07,18.89a1.87,1.87,0,0,0,3.24.74c14.24-16.85,52.28-13.69,37-76.91a1.88,1.88,0,0,0-3.46-.5l-1.18,2-9.14,15.83a25.1,25.1,0,0,1-15.27,11.71,23,23,0,0,0-16.28,28.2Z"/><path class="cls-4" d="M259.59,111.38l2.64,9.83c14.1-14.66,46.72-14.16,38-65.57l-9.14,15.83a25.1,25.1,0,0,1-15.27,11.71,23,23,0,0,0-16.28,28.2Z"/><ellipse class="cls-5" cx="284.27" cy="88.48" rx="9.67" ry="5.96" transform="translate(-4.79 159.78) rotate(-31.15)"/><ellipse class="cls-5" cx="269.29" cy="101.24" rx="6.73" ry="4.15" transform="translate(25.54 254.04) rotate(-52.69)"/><path class="cls-3" d="M113.62,205V396a4.65,4.65,0,0,1-1.35,3.27,5.12,5.12,0,0,1-1,.77,4.61,4.61,0,0,1-6.85-4V205a4.62,4.62,0,0,1,9.23,0Z"/><path class="cls-4" d="M113.62,205V396a4.65,4.65,0,0,1-1.35,3.27,5.12,5.12,0,0,1-1,.77,4.6,4.6,0,0,1-2.39-4V205a4.59,4.59,0,0,1,2.39-4A4.6,4.6,0,0,1,113.62,205Z"/><path class="cls-3" d="M98.38,321.26v13.91a1.34,1.34,0,0,1-2.09,1.11c-12.88-9-38.43.22-39.59-46a1.34,1.34,0,0,1,2.29-1l1.18,1.18,9.19,9.19A17.93,17.93,0,0,0,82,304.89a16.37,16.37,0,0,1,16.37,16.37Z"/><path class="cls-4" d="M98.38,321.26v7.24c-12.38-7.48-34.7-1.13-38.21-38l9.19,9.19A17.93,17.93,0,0,0,82,304.89a16.37,16.37,0,0,1,16.37,16.37Z"/><ellipse class="cls-5" cx="77.22" cy="310.07" rx="4.24" ry="6.88" transform="translate(-242.1 298.02) rotate(-73.85)"/><ellipse class="cls-5" cx="89.85" cy="316.08" rx="2.95" ry="4.79" transform="translate(-215.21 193.96) rotate(-52.31)"/><path class="cls-3" d="M98.38,285.72v13.9a1.33,1.33,0,0,1-2.09,1.11c-12.88-9-38.43.22-39.59-46a1.34,1.34,0,0,1,2.29-1l1.18,1.18,9.19,9.19A17.89,17.89,0,0,0,82,269.34a16.37,16.37,0,0,1,16.37,16.38Z"/><path class="cls-4" d="M98.38,285.72V293c-12.38-7.47-34.7-1.12-38.21-38l9.19,9.19A17.89,17.89,0,0,0,82,269.34a16.37,16.37,0,0,1,16.37,16.38Z"/><ellipse class="cls-5" cx="77.22" cy="274.52" rx="4.24" ry="6.88" transform="translate(-207.95 272.36) rotate(-73.85)"/><ellipse class="cls-5" cx="89.85" cy="280.53" rx="2.95" ry="4.79" transform="translate(-187.08 180.14) rotate(-52.31)"/><path class="cls-3" d="M98.38,250.17v13.91a1.33,1.33,0,0,1-2.09,1.1c-12.88-8.95-38.43.22-39.59-46a1.34,1.34,0,0,1,2.29-1l1.18,1.18,9.19,9.19A17.89,17.89,0,0,0,82,233.79a16.37,16.37,0,0,1,16.37,16.38Z"/><path class="cls-4" d="M98.38,250.17v7.23c-12.38-7.47-34.7-1.12-38.21-38l9.19,9.19A17.89,17.89,0,0,0,82,233.79a16.37,16.37,0,0,1,16.37,16.38Z"/><ellipse class="cls-5" cx="77.22" cy="238.98" rx="4.24" ry="6.88" transform="translate(-173.8 246.7) rotate(-73.85)"/><ellipse class="cls-5" cx="89.85" cy="244.98" rx="2.95" ry="4.79" transform="translate(-158.95 166.32) rotate(-52.31)"/><path class="cls-3" d="M98.38,214.62v13.91a1.33,1.33,0,0,1-2.09,1.1c-12.88-8.95-38.43.23-39.59-46a1.35,1.35,0,0,1,2.29-1l1.18,1.19L69.36,193A17.93,17.93,0,0,0,82,198.25a16.35,16.35,0,0,1,16.37,16.37Z"/><path class="cls-4" d="M98.38,214.62v7.23c-12.38-7.47-34.7-1.12-38.21-38L69.36,193A17.93,17.93,0,0,0,82,198.25a16.35,16.35,0,0,1,16.37,16.37Z"/><ellipse class="cls-5" cx="77.22" cy="203.43" rx="4.24" ry="6.88" transform="translate(-139.66 221.03) rotate(-73.85)"/><ellipse class="cls-5" cx="89.85" cy="209.43" rx="2.95" ry="4.79" transform="translate(-130.82 152.51) rotate(-52.31)"/><path class="cls-3" d="M103.56,183.7l-1.21,13.86a1.33,1.33,0,0,1-2.18.91c-12.06-10-38.31-3.12-35.43-49.29a1.34,1.34,0,0,1,2.36-.78l1.08,1.28,8.35,10A17.9,17.9,0,0,0,88.68,166a16.38,16.38,0,0,1,14.88,17.74Z"/><path class="cls-4" d="M103.56,183.7l-.63,7.21c-11.68-8.53-34.48-4.15-34.75-41.23l8.35,10A17.9,17.9,0,0,0,88.68,166a16.38,16.38,0,0,1,14.88,17.74Z"/><ellipse class="cls-5" cx="83.45" cy="170.71" rx="4.24" ry="6.88" transform="translate(-105.87 186.96) rotate(-68.85)"/><ellipse class="cls-5" cx="95.51" cy="177.79" rx="2.95" ry="4.79" transform="translate(-99.93 127.46) rotate(-47.31)"/><path class="cls-3" d="M119.62,321.26v13.91a1.34,1.34,0,0,0,2.1,1.11c12.88-9,38.43.22,39.58-46a1.33,1.33,0,0,0-2.28-1l-1.19,1.18-9.19,9.19A17.89,17.89,0,0,1,136,304.89a16.39,16.39,0,0,0-16.38,16.37Z"/><path class="cls-4" d="M119.62,321.26v7.24c12.38-7.48,34.71-1.13,38.21-38l-9.19,9.19A17.89,17.89,0,0,1,136,304.89a16.39,16.39,0,0,0-16.38,16.37Z"/><ellipse class="cls-5" cx="140.79" cy="310.07" rx="6.88" ry="4.24" transform="translate(-80.67 51.38) rotate(-16.15)"/><ellipse class="cls-5" cx="128.15" cy="316.08" rx="4.79" ry="2.95" transform="translate(-166.49 144.29) rotate(-37.69)"/><path class="cls-3" d="M119.62,285.72v13.9a1.34,1.34,0,0,0,2.1,1.11c12.88-9,38.43.22,39.58-46a1.33,1.33,0,0,0-2.28-1l-1.19,1.18-9.19,9.19A17.85,17.85,0,0,1,136,269.34a16.39,16.39,0,0,0-16.38,16.38Z"/><path class="cls-4" d="M119.62,285.72V293c12.38-7.47,34.71-1.12,38.21-38l-9.19,9.19A17.85,17.85,0,0,1,136,269.34a16.39,16.39,0,0,0-16.38,16.38Z"/><ellipse class="cls-5" cx="140.79" cy="274.52" rx="6.88" ry="4.24" transform="translate(-70.78 49.98) rotate(-16.15)"/><ellipse class="cls-5" cx="128.15" cy="280.53" rx="4.79" ry="2.95" transform="translate(-144.76 136.87) rotate(-37.69)"/><path class="cls-3" d="M119.62,250.17v13.91a1.34,1.34,0,0,0,2.1,1.1c12.88-8.95,38.43.22,39.58-46a1.33,1.33,0,0,0-2.28-1l-1.19,1.18-9.19,9.19A17.85,17.85,0,0,1,136,233.79a16.39,16.39,0,0,0-16.38,16.38Z"/><path class="cls-4" d="M119.62,250.17v7.23c12.38-7.47,34.71-1.12,38.21-38l-9.19,9.19A17.85,17.85,0,0,1,136,233.79a16.39,16.39,0,0,0-16.38,16.38Z"/><ellipse class="cls-5" cx="140.79" cy="238.98" rx="6.88" ry="4.24" transform="translate(-60.9 48.57) rotate(-16.15)"/><ellipse class="cls-5" cx="128.15" cy="244.98" rx="4.79" ry="2.95" transform="translate(-123.03 129.45) rotate(-37.69)"/><path class="cls-3" d="M119.62,214.62v13.91a1.34,1.34,0,0,0,2.1,1.1c12.88-8.95,38.43.23,39.58-46a1.34,1.34,0,0,0-2.28-1l-1.19,1.19L148.64,193A17.89,17.89,0,0,1,136,198.25a16.37,16.37,0,0,0-16.38,16.37Z"/><path class="cls-4" d="M119.62,214.62v7.23c12.38-7.47,34.71-1.12,38.21-38L148.64,193A17.89,17.89,0,0,1,136,198.25a16.37,16.37,0,0,0-16.38,16.37Z"/><ellipse class="cls-5" cx="140.79" cy="203.43" rx="6.88" ry="4.24" transform="translate(-51.01 47.17) rotate(-16.15)"/><ellipse class="cls-5" cx="128.15" cy="209.43" rx="4.79" ry="2.95" transform="translate(-101.3 122.04) rotate(-37.69)"/><path class="cls-3" d="M114.44,183.7l1.22,13.86a1.33,1.33,0,0,0,2.18.91c12-10,38.31-3.12,35.42-49.29a1.34,1.34,0,0,0-2.36-.78l-1.07,1.28-8.36,10A17.89,17.89,0,0,1,129.33,166a16.38,16.38,0,0,0-14.89,17.74Z"/><path class="cls-4" d="M114.44,183.7l.63,7.21c11.69-8.53,34.48-4.15,34.76-41.23l-8.36,10A17.89,17.89,0,0,1,129.33,166a16.38,16.38,0,0,0-14.89,17.74Z"/><ellipse class="cls-5" cx="134.55" cy="170.71" rx="6.88" ry="4.24" transform="translate(-52.52 60.03) rotate(-21.15)"/><ellipse class="cls-5" cx="122.49" cy="177.79" rx="4.79" ry="2.95" transform="translate(-88.09 130.15) rotate(-42.69)"/><path class="cls-3" d="M106.45,153.15l-3.6,13.43a1.34,1.34,0,0,1-2.31.53c-10.13-12-37.18-9.74-26.33-54.7a1.34,1.34,0,0,1,2.46-.36l.84,1.45L84,124.76a17.85,17.85,0,0,0,10.86,8.33,16.39,16.39,0,0,1,11.58,20.06Z"/><path class="cls-4" d="M106.45,153.15l-1.88,7c-10-10.42-33.23-10.06-27.06-46.63L84,124.76a17.85,17.85,0,0,0,10.86,8.33,16.39,16.39,0,0,1,11.58,20.06Z"/><ellipse class="cls-5" cx="88.9" cy="136.86" rx="4.24" ry="6.88" transform="translate(-74.21 142.16) rotate(-58.85)"/><ellipse class="cls-5" cx="99.55" cy="145.93" rx="2.95" ry="4.79" transform="translate(-68.09 90.21) rotate(-37.31)"/><path class="cls-3" d="M111.56,153.15l3.6,13.43a1.34,1.34,0,0,0,2.31.53c10.12-12,37.18-9.74,26.32-54.7a1.34,1.34,0,0,0-2.46-.36l-.83,1.45L134,124.76a17.85,17.85,0,0,1-10.86,8.33,16.36,16.36,0,0,0-11.58,20.06Z"/><path class="cls-4" d="M111.56,153.15l1.87,7c10-10.42,33.23-10.06,27.07-46.63L134,124.76a17.85,17.85,0,0,1-10.86,8.33,16.36,16.36,0,0,0-11.58,20.06Z"/><ellipse class="cls-5" cx="129.11" cy="136.86" rx="6.88" ry="4.24" transform="translate(-52.17 86.5) rotate(-31.15)"/><ellipse class="cls-5" cx="118.46" cy="145.93" rx="4.79" ry="2.95" transform="translate(-69.41 151.68) rotate(-52.69)"/><path class="cls-3" d="M407.61,205V396a4.62,4.62,0,1,1-9.23,0V205a4.62,4.62,0,0,1,4.62-4.61,4.62,4.62,0,0,1,4.61,4.61Z"/><path class="cls-4" d="M407.61,205V396a4.58,4.58,0,0,1-2.38,4,4.62,4.62,0,0,1-2.39-4V205a4.61,4.61,0,0,1,2.39-4A4.6,4.6,0,0,1,407.61,205Z"/><path class="cls-3" d="M392.38,321.26v13.91a1.34,1.34,0,0,1-2.1,1.11c-12.88-9-38.43.22-39.58-46a1.33,1.33,0,0,1,2.28-1l1.19,1.18,9.19,9.19A17.89,17.89,0,0,0,376,304.89a16.39,16.39,0,0,1,16.38,16.37Z"/><path class="cls-4" d="M392.38,321.26v7.24c-12.38-7.48-34.71-1.13-38.21-38l9.19,9.19A17.89,17.89,0,0,0,376,304.89a16.39,16.39,0,0,1,16.38,16.37Z"/><ellipse class="cls-5" cx="371.21" cy="310.07" rx="4.24" ry="6.88" transform="translate(-29.85 580.42) rotate(-73.85)"/><ellipse class="cls-5" cx="383.85" cy="316.08" rx="2.95" ry="4.79" transform="matrix(0.61, -0.79, 0.79, 0.61, -100.95, 426.62)"/><path class="cls-3" d="M392.38,285.72v13.9a1.34,1.34,0,0,1-2.1,1.11c-12.88-9-38.43.22-39.58-46a1.33,1.33,0,0,1,2.28-1l1.19,1.18,9.19,9.19A17.85,17.85,0,0,0,376,269.34a16.39,16.39,0,0,1,16.38,16.38Z"/><path class="cls-4" d="M392.38,285.72V293c-12.38-7.47-34.71-1.12-38.21-38l9.19,9.19A17.85,17.85,0,0,0,376,269.34a16.39,16.39,0,0,1,16.38,16.38Z"/><ellipse class="cls-5" cx="371.21" cy="274.52" rx="4.24" ry="6.88" transform="translate(4.29 554.76) rotate(-73.85)"/><ellipse class="cls-5" cx="383.85" cy="280.53" rx="2.95" ry="4.79" transform="translate(-72.82 412.8) rotate(-52.31)"/><path class="cls-3" d="M392.38,250.17v13.91a1.34,1.34,0,0,1-2.1,1.1c-12.88-8.95-38.43.22-39.58-46a1.33,1.33,0,0,1,2.28-1l1.19,1.18,9.19,9.19A17.85,17.85,0,0,0,376,233.79a16.39,16.39,0,0,1,16.38,16.38Z"/><path class="cls-4" d="M392.38,250.17v7.23c-12.38-7.47-34.71-1.12-38.21-38l9.19,9.19A17.85,17.85,0,0,0,376,233.79a16.39,16.39,0,0,1,16.38,16.38Z"/><ellipse class="cls-5" cx="371.21" cy="238.98" rx="4.24" ry="6.88" transform="translate(38.44 529.1) rotate(-73.85)"/><ellipse class="cls-5" cx="383.85" cy="244.98" rx="2.95" ry="4.79" transform="translate(-44.68 398.98) rotate(-52.31)"/><path class="cls-3" d="M392.38,214.62v13.91a1.34,1.34,0,0,1-2.1,1.1c-12.88-8.95-38.43.23-39.58-46a1.34,1.34,0,0,1,2.28-1l1.19,1.19,9.19,9.19A17.89,17.89,0,0,0,376,198.25a16.37,16.37,0,0,1,16.38,16.37Z"/><path class="cls-4" d="M392.38,214.62v7.23c-12.38-7.47-34.71-1.12-38.21-38l9.19,9.19A17.89,17.89,0,0,0,376,198.25a16.37,16.37,0,0,1,16.38,16.37Z"/><ellipse class="cls-5" cx="371.21" cy="203.43" rx="4.24" ry="6.88" transform="translate(72.58 503.43) rotate(-73.85)"/><ellipse class="cls-5" cx="383.85" cy="209.43" rx="2.95" ry="4.79" transform="matrix(0.61, -0.79, 0.79, 0.61, -16.55, 385.17)"/><path class="cls-3" d="M397.56,183.7l-1.22,13.86a1.33,1.33,0,0,1-2.18.91c-12.05-10-38.31-3.12-35.42-49.29a1.34,1.34,0,0,1,2.36-.78l1.07,1.28,8.36,10A17.89,17.89,0,0,0,382.67,166a16.38,16.38,0,0,1,14.89,17.74Z"/><path class="cls-4" d="M397.56,183.7l-.63,7.21c-11.69-8.53-34.48-4.15-34.76-41.23l8.36,10A17.89,17.89,0,0,0,382.67,166a16.38,16.38,0,0,1,14.89,17.74Z"/><ellipse class="cls-5" cx="377.45" cy="170.71" rx="4.24" ry="6.88" transform="translate(82.08 461.16) rotate(-68.85)"/><ellipse class="cls-5" cx="389.51" cy="177.79" rx="2.95" ry="4.79" transform="translate(-5.26 343.57) rotate(-47.31)"/><path class="cls-3" d="M413.62,321.26v13.91a1.34,1.34,0,0,0,2.09,1.11c12.88-9,38.43.22,39.59-46a1.34,1.34,0,0,0-2.29-1l-1.18,1.18-9.19,9.19A17.93,17.93,0,0,1,430,304.89a16.37,16.37,0,0,0-16.37,16.37Z"/><path class="cls-4" d="M413.62,321.26v7.24c12.38-7.48,34.7-1.13,38.21-38l-9.19,9.19A17.93,17.93,0,0,1,430,304.89a16.37,16.37,0,0,0-16.37,16.37Z"/><ellipse class="cls-5" cx="434.78" cy="310.07" rx="6.88" ry="4.24" transform="translate(-69.07 133.13) rotate(-16.15)"/><ellipse class="cls-5" cx="422.15" cy="316.08" rx="4.79" ry="2.95" transform="translate(-105.16 324.02) rotate(-37.69)"/><path class="cls-3" d="M413.62,285.72v13.9a1.33,1.33,0,0,0,2.09,1.11c12.88-9,38.43.22,39.59-46a1.34,1.34,0,0,0-2.29-1l-1.18,1.18-9.19,9.19A17.89,17.89,0,0,1,430,269.34a16.37,16.37,0,0,0-16.37,16.38Z"/><path class="cls-4" d="M413.62,285.72V293c12.38-7.47,34.7-1.12,38.21-38l-9.19,9.19A17.89,17.89,0,0,1,430,269.34a16.37,16.37,0,0,0-16.37,16.38Z"/><ellipse class="cls-5" cx="434.78" cy="274.52" rx="6.88" ry="4.24" transform="translate(-59.19 131.73) rotate(-16.15)"/><ellipse class="cls-5" cx="422.15" cy="280.53" rx="4.79" ry="2.95" transform="translate(-83.43 316.6) rotate(-37.69)"/><path class="cls-3" d="M413.62,250.17v13.91a1.33,1.33,0,0,0,2.09,1.1c12.88-8.95,38.43.22,39.59-46a1.34,1.34,0,0,0-2.29-1l-1.18,1.18-9.19,9.19A17.89,17.89,0,0,1,430,233.79a16.37,16.37,0,0,0-16.37,16.38Z"/><path class="cls-4" d="M413.62,250.17v7.23c12.38-7.47,34.7-1.12,38.21-38l-9.19,9.19A17.89,17.89,0,0,1,430,233.79a16.37,16.37,0,0,0-16.37,16.38Z"/><ellipse class="cls-5" cx="434.78" cy="238.98" rx="6.88" ry="4.24" transform="translate(-49.3 130.33) rotate(-16.15)"/><ellipse class="cls-5" cx="422.15" cy="244.98" rx="4.79" ry="2.95" transform="translate(-61.69 309.18) rotate(-37.69)"/><path class="cls-3" d="M413.62,214.62v13.91a1.33,1.33,0,0,0,2.09,1.1c12.88-8.95,38.43.23,39.59-46a1.35,1.35,0,0,0-2.29-1l-1.18,1.19L442.64,193A17.93,17.93,0,0,1,430,198.25a16.35,16.35,0,0,0-16.37,16.37Z"/><path class="cls-4" d="M413.62,214.62v7.23c12.38-7.47,34.7-1.12,38.21-38L442.64,193A17.93,17.93,0,0,1,430,198.25a16.35,16.35,0,0,0-16.37,16.37Z"/><ellipse class="cls-5" cx="434.78" cy="203.43" rx="6.88" ry="4.24" transform="translate(-39.42 128.92) rotate(-16.15)"/><ellipse class="cls-5" cx="422.15" cy="209.43" rx="4.79" ry="2.95" transform="translate(-39.96 301.77) rotate(-37.69)"/><path class="cls-3" d="M408.44,183.7l1.21,13.86a1.33,1.33,0,0,0,2.18.91c12.06-10,38.31-3.12,35.43-49.29a1.34,1.34,0,0,0-2.36-.78l-1.08,1.28-8.35,10A17.9,17.9,0,0,1,423.32,166a16.38,16.38,0,0,0-14.88,17.74Z"/><path class="cls-4" d="M408.44,183.7l.63,7.21c11.68-8.53,34.48-4.15,34.75-41.23l-8.35,10A17.9,17.9,0,0,1,423.32,166a16.38,16.38,0,0,0-14.88,17.74Z"/><ellipse class="cls-5" cx="428.55" cy="170.71" rx="6.88" ry="4.24" transform="translate(-32.72 166.08) rotate(-21.15)"/><ellipse class="cls-5" cx="416.49" cy="177.79" rx="4.79" ry="2.95" transform="translate(-10.2 329.47) rotate(-42.69)"/><path class="cls-3" d="M400.44,153.15l-3.6,13.43a1.34,1.34,0,0,1-2.31.53c-10.12-12-37.18-9.74-26.32-54.7a1.34,1.34,0,0,1,2.46-.36l.83,1.45,6.5,11.26a17.85,17.85,0,0,0,10.86,8.33,16.36,16.36,0,0,1,11.58,20.06Z"/><path class="cls-4" d="M400.44,153.15l-1.87,7c-10-10.42-33.23-10.06-27.07-46.63l6.5,11.26a17.85,17.85,0,0,0,10.86,8.33,16.36,16.36,0,0,1,11.58,20.06Z"/><ellipse class="cls-5" cx="382.89" cy="136.86" rx="4.24" ry="6.88" transform="matrix(0.52, -0.86, 0.86, 0.52, 67.73, 393.78)"/><ellipse class="cls-5" cx="393.54" cy="145.93" rx="2.95" ry="4.79" transform="translate(-7.91 268.43) rotate(-37.31)"/><path class="cls-3" d="M405.55,153.15l3.6,13.43a1.34,1.34,0,0,0,2.31.53c10.13-12,37.18-9.74,26.33-54.7a1.34,1.34,0,0,0-2.46-.36l-.84,1.45L428,124.76a17.85,17.85,0,0,1-10.86,8.33,16.39,16.39,0,0,0-11.58,20.06Z"/><path class="cls-4" d="M405.55,153.15l1.88,7c10-10.42,33.23-10.06,27.06-46.63L428,124.76a17.85,17.85,0,0,1-10.86,8.33,16.39,16.39,0,0,0-11.58,20.06Z"/><ellipse class="cls-5" cx="423.1" cy="136.86" rx="6.88" ry="4.24" transform="translate(-9.8 238.56) rotate(-31.15)"/><ellipse class="cls-5" cx="412.45" cy="145.93" rx="4.79" ry="2.95" transform="translate(46.37 385.5) rotate(-52.69)"/></svg>