<svg width="24" height="24"  id="Icons" xmlns="http://www.w3.org/2000/svg" viewBox="0 0 512 512"><defs><style>.cls-1{fill:#14a36d;}.cls-2{fill:#15be79;}.cls-3{fill:#aacfe5;}.cls-4{fill:#cde6f6;}.cls-5{fill:#eef9ff;}.cls-6{fill:#f39e22;}.cls-7{fill:#f9c744;}.cls-8{fill:#fff;}.cls-9{fill:#f4e6f4;}.cls-10{fill:#decee5;}</style></defs><title>019-beer-export</title><circle class="cls-1" cx="256" cy="256" r="255.98"/><path class="cls-2" d="M443,430.79a255.59,255.59,0,0,0,64.81-220.58C482.56,71.11,349.3-21.15,210.21,4.14A254.76,254.76,0,0,0,80.79,69.33a77,77,0,0,1,5.69,14.75c7.33,27.05,2,59.28,20.66,80.22,12.78,14.36,33.54,18.74,52.76,18.41s38.33-4.54,57.55-3.81A112.53,112.53,0,0,1,325.71,294c-.51,21.28-6.22,45.46,7.49,61.77,18.63,22.16,59,11.91,78.21,33.57,6.2,7,9.07,16.24,14,24.14A54.43,54.43,0,0,0,443,430.79Z"/><path class="cls-3" d="M401.32,168.73v86.38A16.85,16.85,0,0,1,384.46,272H331.74v-22.3H371.8a7.21,7.21,0,0,0,7.22-7.22V181.39a7.21,7.21,0,0,0-7.22-7.22H331.74v-22.3h52.72A16.85,16.85,0,0,1,401.32,168.73Z"/><path class="cls-4" d="M401.32,168.73v77.05a16.86,16.86,0,0,1-16.86,16.86H351.7a5.09,5.09,0,0,1-5.09-5.09v-2.79a5.09,5.09,0,0,1,5.09-5.09h27.54a7.22,7.22,0,0,0,7.22-7.22v-70.4a7.22,7.22,0,0,0-7.22-7.22H351.7a5.09,5.09,0,0,1-5.09-5.09V157a5.09,5.09,0,0,1,5.09-5.09h32.76A16.86,16.86,0,0,1,401.32,168.73Z"/><ellipse class="cls-5" cx="394.94" cy="184.4" rx="6.38" ry="14.05"/><ellipse class="cls-5" cx="394.94" cy="212.52" rx="4.43" ry="9.74"/><path class="cls-3" d="M331.74,106.81v251.7a15.43,15.43,0,0,1-15.43,15.43H158.17a15.43,15.43,0,0,1-15.43-15.43V106.81a15.43,15.43,0,0,1,15.43-15.43H316.31A15.43,15.43,0,0,1,331.74,106.81Z"/><rect class="cls-4" x="159.77" y="91.38" width="171.97" height="282.56" rx="15.43"/><rect class="cls-5" x="314.71" y="110.63" width="17.04" height="69.35" rx="8.52"/><rect class="cls-5" x="314.71" y="194.48" width="17.04" height="43.45" rx="8.52"/><path class="cls-6" d="M159.77,91.39H314.71a0,0,0,0,1,0,0V332.52a18.53,18.53,0,0,1-18.53,18.53H178.3a18.53,18.53,0,0,1-18.53-18.53V91.39A0,0,0,0,1,159.77,91.39Z"/><ellipse class="cls-7" cx="286.92" cy="152.47" rx="18.23" ry="32.17"/><ellipse class="cls-7" cx="286.92" cy="214.54" rx="11.37" ry="20.06"/><path class="cls-8" d="M314.71,91.37v0l-154.94,0A21.27,21.27,0,0,1,188.5,71.43,21.3,21.3,0,0,1,230.92,71a33,33,0,0,1,36.93-2.45,16.48,16.48,0,0,1,32.89,1.55A16.15,16.15,0,0,1,300,75,16.5,16.5,0,0,1,314.71,91.37Z"/><circle class="cls-8" cx="232.02" cy="159.08" r="10.92"/><circle class="cls-8" cx="252.44" cy="197.02" r="14.12"/><circle class="cls-8" cx="286.92" cy="305.38" r="14.12"/><circle class="cls-8" cx="280.68" cy="96.51" r="14.12"/><circle class="cls-8" cx="226.74" cy="225.39" r="9.19"/><circle class="cls-8" cx="199.48" cy="274.32" r="9.19"/><circle class="cls-8" cx="221.01" cy="319.5" r="9.19"/><circle class="cls-8" cx="259.45" cy="260.63" r="11.83"/><circle class="cls-8" cx="257.38" cy="129.49" r="9.19"/><path class="cls-8" d="M188.47,240.62h0a11,11,0,0,1-11-11V91.39h22V229.6A11,11,0,0,1,188.47,240.62Z"/><path class="cls-8" d="M210,91.38h22a0,0,0,0,1,0,0v33.1a11,11,0,0,1-11,11h0a11,11,0,0,1-11-11V91.38A0,0,0,0,1,210,91.38Z"/><path class="cls-9" d="M429.85,315l5.22,5.22,1,1h49.33a4.15,4.15,0,0,0,2.37-7.56l-13-9a5.3,5.3,0,0,1,0-8.71l13-9a4.15,4.15,0,0,0-2.37-7.56H405.53a11.24,11.24,0,0,0-8,3.3Z"/><path class="cls-10" d="M450.15,401.05a11.88,11.88,0,0,0,3.49-8.43V353.68a35.9,35.9,0,0,0-10.5-25.37l-7-7-1-1L429.85,315l-32.3-32.3a11.27,11.27,0,0,0-3.31,8v54.43Z"/><path class="cls-9" d="M24.19,287l13,9a5.3,5.3,0,0,1,0,8.71l-13,9a4.15,4.15,0,0,0,2.37,7.56H75.89l1-1L82.15,315l32.3-32.3a11.24,11.24,0,0,0-8-3.3H26.56A4.15,4.15,0,0,0,24.19,287Z"/><path class="cls-10" d="M61.85,401.05l55.91-55.92V290.7a11.27,11.27,0,0,0-3.31-8L82.15,315l-5.22,5.22-1,1-7,7a35.9,35.9,0,0,0-10.5,25.37v38.94A11.88,11.88,0,0,0,61.85,401.05Z"/><path class="cls-8" d="M58.36,392.62V353.68a35.75,35.75,0,0,1,3.22-14.86H450.42a35.75,35.75,0,0,1,3.22,14.86v38.94a11.9,11.9,0,0,1-11.91,11.92H70.27a11.9,11.9,0,0,1-11.91-11.92Z"/><path class="cls-6" d="M274,368.3l-8,5.82a3.41,3.41,0,0,0-1.24,3.82l3.06,9.41a1.19,1.19,0,0,1-1.83,1.33l-8-5.82a3.43,3.43,0,0,0-4,0l-8,5.82a1.19,1.19,0,0,1-1.83-1.33l3.06-9.41a3.41,3.41,0,0,0-1.24-3.82l-8-5.82a1.19,1.19,0,0,1,.7-2.15h9.9a3.42,3.42,0,0,0,3.25-2.36l3.06-9.42a1.19,1.19,0,0,1,2.26,0l3.06,9.42a3.42,3.42,0,0,0,3.25,2.36h9.9A1.19,1.19,0,0,1,274,368.3Z"/><path class="cls-6" d="M163.36,368.3l-8,5.82a3.42,3.42,0,0,0-1.24,3.82l3.06,9.41a1.19,1.19,0,0,1-1.83,1.33l-8-5.82a3.42,3.42,0,0,0-2-.65,3.46,3.46,0,0,0-2,.65l-8,5.82a1.19,1.19,0,0,1-1.83-1.33l3.06-9.41a3.43,3.43,0,0,0-1.25-3.82l-8-5.82a1.19,1.19,0,0,1,.7-2.15h9.9a3.43,3.43,0,0,0,3.25-2.36l3.05-9.42a1.18,1.18,0,0,1,1.13-.82,1.16,1.16,0,0,1,1.13.82l3.06,9.42a3.42,3.42,0,0,0,3.25,2.36h9.9A1.19,1.19,0,0,1,163.36,368.3Z"/><path class="cls-6" d="M384.71,368.3l-8,5.82a3.43,3.43,0,0,0-1.25,3.82l3.06,9.41a1.19,1.19,0,0,1-1.83,1.33l-8-5.82a3.46,3.46,0,0,0-2-.65,3.42,3.42,0,0,0-2,.65l-8,5.82a1.19,1.19,0,0,1-1.83-1.33l3.06-9.41a3.42,3.42,0,0,0-1.24-3.82l-8-5.82a1.19,1.19,0,0,1,.7-2.15h9.9a3.42,3.42,0,0,0,3.25-2.36l3.06-9.42a1.16,1.16,0,0,1,1.13-.82,1.18,1.18,0,0,1,1.13.82l3.05,9.42a3.43,3.43,0,0,0,3.25,2.36H384A1.19,1.19,0,0,1,384.71,368.3Z"/></svg>