<svg id="Icons" xmlns="http://www.w3.org/2000/svg" viewBox="0 0 512 512"><defs><style>.cls-1{fill:#b82065;}.cls-2{fill:#d7156f;}.cls-3{fill:#c2aacf;}.cls-4{fill:#decee5;}.cls-5{fill:#f4e6f4;}.cls-6{fill:#14a36d;}.cls-7{fill:#15be79;}.cls-8{fill:#33db92;}.cls-9{fill:#fff;}.cls-10{fill:#ebd9ea;}.cls-11{fill:#f39e22;}.cls-12{fill:#f9c744;}.cls-13{fill:#c44a1a;}.cls-14{fill:#0989d8;}.cls-15{fill:#29a3fb;}.cls-16{fill:#7ed0fc;}.cls-17{fill:#ed72ab;}</style></defs><title>019-beer-export</title><circle class="cls-1" cx="256" cy="256" r="255.98"/><path class="cls-2" d="M0,255.76A255.63,255.63,0,0,1,103.44,50.44c113.54-84.25,273.87-60.52,358.12,53a254.76,254.76,0,0,1,49.93,136,76.89,76.89,0,0,0-14.24,6.88c-23.84,14.74-42,41.9-69.91,44.44-19.15,1.75-37.29-9.24-51.1-22.62s-24.87-29.51-39.4-42.12a112.53,112.53,0,0,0-157.7,10c-14.17,15.89-26.53,37.44-47.68,40-28.75,3.44-51.22-31.63-80-28.95-9.3.87-17.72,5.66-26.73,8A54.5,54.5,0,0,1,0,255.76Z"/><rect class="cls-3" x="109.83" y="324.78" width="14.94" height="126.21" rx="4.85" transform="translate(-287.73 400.8) rotate(-75)"/><rect class="cls-4" x="117.66" y="334.98" width="14.94" height="110.01" rx="4.85" transform="translate(-283.95 409.91) rotate(-75)"/><ellipse class="cls-5" cx="120.95" cy="387.38" rx="4.83" ry="16.01" transform="translate(-284.53 403.94) rotate(-75)"/><ellipse class="cls-5" cx="149.96" cy="395.15" rx="3.12" ry="11.42" transform="translate(-270.54 437.73) rotate(-75)"/><path class="cls-6" d="M237.28,225.54l-34,127a68,68,0,0,1-14.56,27.24l-13.87,15.82L63.64,365.77l-4.1-20.63a67.94,67.94,0,0,1,1-30.87l34-127a68,68,0,0,1,14.56-27.24L123,144.24,234.19,174l4.1,20.64A67.94,67.94,0,0,1,237.28,225.54Z"/><path class="cls-7" d="M237.28,225.54l-34,127a68,68,0,0,1-14.56,27.24l-13.87,15.82L80.37,370.26l-4.11-20.64a68.08,68.08,0,0,1,1-30.87l34-127a68.11,68.11,0,0,1,14.55-27.24l13.88-15.82L234.19,174l4.1,20.64A67.94,67.94,0,0,1,237.28,225.54Z"/><ellipse class="cls-8" cx="199.02" cy="188.82" rx="16.64" ry="26.78" transform="translate(-65.67 260.97) rotate(-58.74)"/><ellipse class="cls-8" cx="220.25" cy="228.44" rx="8.72" ry="15.88" transform="translate(-3.03 2.96) rotate(-0.76)"/><path class="cls-9" d="M226.72,265,210,260.49c-2.47-25.8-19.19-48-43.91-54.64s-50.31,4.26-65.35,25.37L84,226.74,71.11,274.83l16.73,4.48c2.47,25.81,19.19,48,43.91,54.65s50.31-4.26,65.35-25.37l16.73,4.48Z"/><rect class="cls-10" x="77.26" y="228.13" width="17.32" height="49.79" transform="translate(68.42 -13.62) rotate(15)"/><ellipse class="cls-11" cx="148.92" cy="269.9" rx="48.08" ry="44.24" transform="translate(-150.33 343.89) rotate(-75)"/><ellipse class="cls-12" cx="148.92" cy="269.9" rx="35.89" ry="33.02" transform="translate(-150.33 343.89) rotate(-75)"/><rect class="cls-13" x="134.47" y="249.69" width="36.69" height="9.73" rx="4.86" transform="translate(71.09 -30.88) rotate(15)"/><rect class="cls-13" x="117.88" y="266.63" width="60.78" height="9.73" rx="4.86" transform="translate(75.32 -29.12) rotate(15)"/><path class="cls-3" d="M156.14,97.4l-6.39,3.69a13.62,13.62,0,0,0-3.41,20.81l14.22,18.25a14,14,0,0,0,18,3.52h0a14,14,0,0,0,6-17.37l-8.7-21.44A13.62,13.62,0,0,0,156.14,97.4Zm14.71,10.28a8.69,8.69,0,0,1-3.18,11.86l-4.51,2.61A8.69,8.69,0,0,1,151.29,119l-.56-1a8.68,8.68,0,0,1,3.18-11.86l4.51-2.61a8.69,8.69,0,0,1,11.86,3.18Z"/><rect class="cls-3" x="173.06" y="88.82" width="14.94" height="126.21" rx="4.85" transform="translate(-12.94 286.98) rotate(-75)"/><rect class="cls-4" x="180.88" y="99.01" width="14.94" height="110.01" rx="4.85" transform="translate(-9.17 296.09) rotate(-75)"/><ellipse class="cls-5" cx="184.17" cy="151.41" rx="4.83" ry="16.01" transform="translate(-9.75 290.12) rotate(-75)"/><ellipse class="cls-5" cx="213.19" cy="159.19" rx="3.12" ry="11.42" transform="translate(4.25 323.91) rotate(-75)"/><rect class="cls-3" x="331.59" y="380.42" width="126.21" height="14.94" rx="4.85" transform="translate(-86.94 115.37) rotate(-15)"/><rect class="cls-4" x="347.52" y="378.32" width="110.01" height="14.94" rx="4.85" transform="translate(-86.13 117.33) rotate(-15)"/><ellipse class="cls-5" cx="397.6" cy="385.62" rx="16.01" ry="4.83" transform="translate(-86.26 116.05) rotate(-15)"/><ellipse class="cls-5" cx="426.62" cy="377.85" rx="11.42" ry="3.12" transform="translate(-83.26 123.29) rotate(-15)"/><path class="cls-14" d="M417.43,187.3l34,127a67.94,67.94,0,0,1,1,30.87l-4.1,20.63-111.19,29.8L323.3,379.75a68,68,0,0,1-14.56-27.24l-34-127a67.94,67.94,0,0,1-1-30.87l4.1-20.64L389,144.24l13.87,15.82A68,68,0,0,1,417.43,187.3Z"/><path class="cls-15" d="M417.43,187.3l34,127a67.94,67.94,0,0,1,1,30.87l-4.1,20.63L353.9,391.09,340,375.27A68.11,68.11,0,0,1,325.47,348l-34-127a68.08,68.08,0,0,1-1-30.87l4.11-20.64L389,144.24l13.87,15.82A68,68,0,0,1,417.43,187.3Z"/><ellipse class="cls-16" cx="365.93" cy="174.64" rx="16.64" ry="26.78" transform="translate(183.3 536.65) rotate(-88.74)"/><ellipse class="cls-16" cx="404.13" cy="198.33" rx="8.72" ry="15.88" transform="translate(-44.58 234.62) rotate(-30.76)"/><path class="cls-9" d="M428,226.74l-16.73,4.48c-15-21.11-40.63-32-65.35-25.37S304.48,234.69,302,260.49L285.28,265l12.89,48.09,16.73-4.48c15,21.11,40.63,32,65.35,25.37s41.44-28.84,43.91-54.65l16.73-4.48Z"/><rect class="cls-10" x="291.43" y="261.89" width="17.32" height="49.79" transform="translate(-64 87.44) rotate(-15)"/><ellipse class="cls-11" cx="363.08" cy="269.9" rx="44.24" ry="48.08" transform="translate(-57.48 103.17) rotate(-15)"/><ellipse class="cls-12" cx="363.08" cy="269.9" rx="33.02" ry="35.89" transform="translate(-57.48 103.17) rotate(-15)"/><rect class="cls-13" x="340.44" y="249.8" width="36.69" height="9.73" rx="4.86" transform="translate(-53.69 101.54) rotate(-15)"/><rect class="cls-13" x="332.94" y="266.74" width="60.78" height="9.73" rx="4.86" transform="translate(-57.92 103.29) rotate(-15)"/><path class="cls-3" d="M336.14,104.86l-8.7,21.44a14,14,0,0,0,6,17.37h0a14,14,0,0,0,18-3.52l14.22-18.25a13.62,13.62,0,0,0-3.41-20.81l-6.39-3.69A13.62,13.62,0,0,0,336.14,104.86Zm5.58,1.84a8.69,8.69,0,0,1,11.86-3.18l4.51,2.61A8.68,8.68,0,0,1,361.27,118l-.56,1a8.69,8.69,0,0,1-11.87,3.18l-4.51-2.61a8.69,8.69,0,0,1-3.18-11.86Z"/><rect class="cls-3" x="268.37" y="144.45" width="126.21" height="14.94" rx="4.85" transform="translate(-28.03 90.97) rotate(-15)"/><rect class="cls-4" x="284.29" y="142.36" width="110.01" height="14.94" rx="4.85" transform="translate(-27.22 92.92) rotate(-15)"/><ellipse class="cls-5" cx="334.37" cy="149.66" rx="16.01" ry="4.83" transform="matrix(0.97, -0.26, 0.26, 0.97, -27.34, 91.64)"/><ellipse class="cls-5" cx="363.39" cy="141.88" rx="11.42" ry="3.12" transform="translate(-24.34 98.89) rotate(-15)"/><rect class="cls-17" x="251.74" y="59.04" width="8.51" height="54.43" rx="4.26"/><rect class="cls-17" x="224.98" y="71.75" width="8.51" height="44.01" rx="4.26" transform="translate(-16.45 62.52) rotate(-15)"/><rect class="cls-17" x="200.93" y="90.98" width="8.51" height="32.56" rx="4.26" transform="translate(-26.14 116.97) rotate(-30)"/><rect class="cls-17" x="278.51" y="71.75" width="8.51" height="44.01" rx="4.26" transform="translate(531.64 257.5) rotate(-165)"/><rect class="cls-17" x="302.55" y="90.98" width="8.51" height="32.56" rx="4.26" transform="translate(518.88 353.56) rotate(-150)"/></svg>